<svg xmlns="http://www.w3.org/2000/svg" xmlns:xlink="http://www.w3.org/1999/xlink" viewBox="0,0,256,256" width="32px" height="32px"><g fill="#041a2b" fill-rule="nonzero" stroke="none" stroke-width="1" stroke-linecap="butt" stroke-linejoin="miter" stroke-miterlimit="10" stroke-dasharray="" stroke-dashoffset="0" font-family="none" font-weight="none" font-size="none" text-anchor="none" style="mix-blend-mode: normal"><g transform="scale(8.53333,8.53333)"><path d="M16.5,5c-2.521,0 -4.67159,1.56067 -5.55859,3.76367c-0.789,-0.474 -1.70241,-0.76367 -2.69141,-0.76367c-2.899,0 -5.25,2.35 -5.25,5.25c0,0.28 0.04003,0.54936 0.08203,0.81836c-1.747,0.317 -3.08203,1.84664 -3.08203,3.68164c0,2.062 1.688,3.75 3.75,3.75h2.20898c-0.295,-0.692 -0.45898,-1.452 -0.45898,-2.25c0,-2.781 1.98528,-5.10772 4.61328,-5.63672c1.136,-2.746 3.83034,-4.61328 6.90234,-4.61328c1.74,0 3.39761,0.60808 4.72461,1.70508c0.235,-0.065 0.47384,-0.11148 0.71484,-0.14648c-0.23,-3.104 -2.79308,-5.55859 -5.95508,-5.55859zM17.01563,11c-2.691,0 -4.91977,1.943 -5.38477,4.5h-0.38086c-2.062,0 -3.75,1.688 -3.75,3.75c0,2.062 1.688,3.75 3.75,3.75h15.75c1.65,0 3,-1.35 3,-3c0,-1.65 -1.35,-3 -3,-3h-0.07422c0.05,-0.243 0.07422,-0.494 0.07422,-0.75c0,-2.072 -1.678,-3.75 -3.75,-3.75c-0.726,0 -1.3977,0.21527 -1.9707,0.57227c-1.006,-1.254 -2.53267,-2.07227 -4.26367,-2.07227z"></path></g></g></svg>