<svg xmlns="http://www.w3.org/2000/svg" xmlns:xlink="http://www.w3.org/1999/xlink" viewBox="0,0,256,256" width="32px" height="32px"><g fill="#041a2b" fill-rule="nonzero" stroke="none" stroke-width="1" stroke-linecap="butt" stroke-linejoin="miter" stroke-miterlimit="10" stroke-dasharray="" stroke-dashoffset="0" font-family="none" font-weight="none" font-size="none" text-anchor="none" style="mix-blend-mode: normal"><g transform="scale(8,8)"><path d="M16,4c-2.89844,0 -5.55078,1.03906 -7.625,2.75c-0.59375,0.48828 -1.13672,1.03125 -1.625,1.625c-1.71094,2.07422 -2.75,4.72656 -2.75,7.625c0,2.89844 1.03906,5.55078 2.75,7.625c0.48828,0.59375 1.03125,1.13672 1.625,1.625c2.07422,1.71094 4.72656,2.75 7.625,2.75c0.41406,0 0.81641,-0.02344 1.21875,-0.0625c2.41797,-0.24609 4.62891,-1.21875 6.40625,-2.6875c0.59375,-0.48828 1.13672,-1.03125 1.625,-1.625c1.71094,-2.07422 2.75,-4.72656 2.75,-7.625c0,-0.41406 -0.01953,-0.81641 -0.0625,-1.21875c-0.24609,-2.42187 -1.21875,-4.62891 -2.6875,-6.40625c-0.48828,-0.59375 -1.03125,-1.13672 -1.625,-1.625c-2.07422,-1.71094 -4.72656,-2.75 -7.625,-2.75zM20.34375,9.53125c0.17188,0.00781 0.39453,0.125 0.5625,0.53125c0.33203,0.80859 2.6875,5.84375 2.6875,5.84375c0,0 0.60156,1.5 1.75,1.5c0.23047,0 0.40625,-0.05859 0.5625,-0.09375c-0.11328,0.875 -0.33203,1.71094 -0.65625,2.5c-0.29297,0.0625 -0.66406,0.125 -1.15625,0.125c-1.63672,0 -2.5625,-1.25 -2.5625,-1.25c0,0 -0.76562,3.15625 -4.5,3.15625c-0.71484,0 -1.84375,-0.28125 -1.84375,-0.28125l1.9375,4.375c-0.36719,0.03906 -0.74609,0.0625 -1.125,0.0625c-1.20703,0 -2.36719,-0.20312 -3.4375,-0.59375l-4.84375,-12.6875c0,0 -0.38281,-0.60937 0.1875,-0.75c0.57031,-0.14062 2.8125,-0.625 2.8125,-0.625c0,0 0.69922,-0.38672 0.9375,0.28125c0.23828,0.66797 2.1875,5.625 2.1875,5.625c0,0 0.89844,2.125 3.375,2.125c2.47656,0 3.07031,-2.23437 2.96875,-2.5c-0.60547,-1.58203 -2.5625,-6.15625 -2.5625,-6.15625c0,0 -0.3125,-0.57422 0.40625,-0.71875c0.70703,-0.14062 2,-0.375 2,-0.375c0,0 0.14063,-0.10156 0.3125,-0.09375z"></path></g></g></svg>